<svg width="74" height="28" viewBox="0 0 74 28" fill="none" xmlns="http://www.w3.org/2000/svg">
<path d="M30.0876 10.56C28.9542 10.56 28.3876 10.0733 28.3876 9.1C28.3876 8.11333 28.9542 7.62 30.0876 7.62C31.2209 7.62 31.7876 8.11333 31.7876 9.1C31.7876 10.0733 31.2209 10.56 30.0876 10.56ZM31.4476 12V22H28.7076V12H31.4476ZM37.0521 7.62V18.92C37.0521 19.3867 37.1321 19.7133 37.2921 19.9C37.4521 20.0867 37.7188 20.18 38.0921 20.18C38.3188 20.18 38.5054 20.1667 38.6521 20.14C38.7988 20.1133 38.9854 20.06 39.2121 19.98L38.9721 21.78C38.7454 21.9133 38.4588 22.0133 38.1121 22.08C37.7788 22.16 37.4454 22.2 37.1121 22.2C36.1388 22.2 35.4254 21.9667 34.9721 21.5C34.5321 21.02 34.3121 20.26 34.3121 19.22V7.62H37.0521ZM46.5365 15.62C46.5365 15.0467 46.3698 14.6 46.0365 14.28C45.7165 13.96 45.2898 13.8 44.7565 13.8C44.2632 13.8 43.8298 13.9267 43.4565 14.18C43.0832 14.4333 42.8098 14.8533 42.6365 15.44L40.2965 14.72C40.5232 13.84 41.0165 13.1333 41.7765 12.6C42.5498 12.0667 43.5832 11.8 44.8765 11.8C46.1832 11.8 47.2365 12.1133 48.0365 12.74C48.8498 13.3533 49.2565 14.2733 49.2565 15.5V19.56C49.2565 20.0667 49.4965 20.32 49.9765 20.32C50.2032 20.32 50.4165 20.2867 50.6165 20.22L50.4565 21.92C50.1098 22.0933 49.6765 22.18 49.1565 22.18C48.5832 22.18 48.0832 22.06 47.6565 21.82C47.2432 21.58 46.9632 21.22 46.8165 20.74C46.4965 21.22 46.0365 21.5867 45.4365 21.84C44.8498 22.08 44.2432 22.2 43.6165 22.2C42.6032 22.2 41.7965 21.9733 41.1965 21.52C40.6098 21.0533 40.3165 20.38 40.3165 19.5C40.3165 18.7533 40.5565 18.1467 41.0365 17.68C41.5165 17.2 42.2032 16.8733 43.0965 16.7L46.5365 16V15.62ZM43.0565 19.24C43.0565 19.5733 43.1765 19.8267 43.4165 20C43.6698 20.1733 43.9698 20.26 44.3165 20.26C44.7032 20.26 45.0632 20.2 45.3965 20.08C45.7298 19.96 46.0032 19.76 46.2165 19.48C46.4298 19.1867 46.5365 18.8 46.5365 18.32V17.7L44.4365 18.12C43.9832 18.2133 43.6365 18.34 43.3965 18.5C43.1698 18.6467 43.0565 18.8933 43.0565 19.24ZM52.3209 22V12H54.7809L54.8809 13.88C55.1875 13.1867 55.6342 12.6667 56.2209 12.32C56.8209 11.9733 57.5075 11.8 58.2809 11.8C59.3209 11.8 60.1809 12.1067 60.8609 12.72C61.5409 13.32 61.8809 14.2267 61.8809 15.44V22H59.1409V16.22C59.1409 15.3667 58.9675 14.78 58.6209 14.46C58.2875 14.1267 57.8609 13.96 57.3409 13.96C56.9675 13.96 56.6009 14.0533 56.2409 14.24C55.8942 14.4133 55.6075 14.7 55.3809 15.1C55.1675 15.5 55.0609 16.0333 55.0609 16.7V22H52.3209ZM64.1237 22V20.24L68.5637 15.12L69.7037 13.98L68.0437 14.02H64.1637V12H72.7437V13.76L68.3237 18.86L67.1837 20.02L69.0037 19.98H72.9037V22H64.1237Z" fill="#003974"/>
<rect y="1" width="25" height="26.6667" fill="#0095DA"/>
<path d="M6.5015 22V6.16H13.4375C15.3575 6.16 16.7735 6.536 17.6855 7.288C18.5975 8.04 19.0535 9.104 19.0535 10.48C19.0535 11.328 18.7975 12.08 18.2855 12.736C17.7735 13.392 17.0215 13.808 16.0295 13.984V14.008C17.1335 14.168 17.9815 14.584 18.5735 15.256C19.1655 15.928 19.4615 16.728 19.4615 17.656C19.4615 19.016 18.9655 20.08 17.9735 20.848C16.9975 21.616 15.5655 22 13.6775 22H6.5015ZM9.7175 12.808H13.0055C14.7495 12.808 15.6215 12.128 15.6215 10.768C15.6215 9.408 14.7495 8.728 13.0055 8.728H9.7175V12.808ZM9.7175 19.504H13.3895C14.2695 19.504 14.9255 19.328 15.3575 18.976C15.8055 18.608 16.0295 18.088 16.0295 17.416C16.0295 16.76 15.8055 16.256 15.3575 15.904C14.9255 15.536 14.2695 15.352 13.3895 15.352H9.7175V19.504Z" fill="white"/>
</svg>
