<svg width="65" height="20" viewBox="0 0 65 20" fill="none" xmlns="http://www.w3.org/2000/svg">
<rect width="18.6735" height="19" fill="#0095DA"/>
<path d="M6.00088 14V4.76H10.0469C11.1669 4.76 11.9929 4.97933 12.5249 5.418C13.0569 5.85667 13.3229 6.47733 13.3229 7.28C13.3229 7.77467 13.1735 8.21333 12.8749 8.596C12.5762 8.97867 12.1375 9.22133 11.5589 9.324V9.338C12.2029 9.43133 12.6975 9.674 13.0429 10.066C13.3882 10.458 13.5609 10.9247 13.5609 11.466C13.5609 12.2593 13.2715 12.88 12.6929 13.328C12.1235 13.776 11.2882 14 10.1869 14H6.00088ZM7.87688 8.638H9.79488C10.8122 8.638 11.3209 8.24133 11.3209 7.448C11.3209 6.65467 10.8122 6.258 9.79488 6.258H7.87688V8.638ZM7.87688 12.544H10.0189C10.5322 12.544 10.9149 12.4413 11.1669 12.236C11.4282 12.0213 11.5589 11.718 11.5589 11.326C11.5589 10.9433 11.4282 10.6493 11.1669 10.444C10.9149 10.2293 10.5322 10.122 10.0189 10.122H7.87688V12.544Z" fill="white"/>
<path d="M21.6701 5.848C20.7634 5.848 20.3101 5.45867 20.3101 4.68C20.3101 3.89067 20.7634 3.496 21.6701 3.496C22.5767 3.496 23.0301 3.89067 23.0301 4.68C23.0301 5.45867 22.5767 5.848 21.6701 5.848ZM22.7581 7V15H20.5661V7H22.7581ZM27.2417 3.496V12.536C27.2417 12.9093 27.3057 13.1707 27.4337 13.32C27.5617 13.4693 27.775 13.544 28.0737 13.544C28.255 13.544 28.4044 13.5333 28.5217 13.512C28.639 13.4907 28.7884 13.448 28.9697 13.384L28.7777 14.824C28.5964 14.9307 28.367 15.0107 28.0897 15.064C27.823 15.128 27.5564 15.16 27.2897 15.16C26.511 15.16 25.9404 14.9733 25.5777 14.6C25.2257 14.216 25.0497 13.608 25.0497 12.776V3.496H27.2417ZM34.8292 9.896C34.8292 9.43733 34.6959 9.08 34.4292 8.824C34.1732 8.568 33.8319 8.44 33.4052 8.44C33.0105 8.44 32.6639 8.54133 32.3652 8.744C32.0665 8.94667 31.8479 9.28267 31.7092 9.752L29.8372 9.176C30.0185 8.472 30.4132 7.90667 31.0212 7.48C31.6399 7.05333 32.4665 6.84 33.5012 6.84C34.5465 6.84 35.3892 7.09067 36.0292 7.592C36.6799 8.08267 37.0052 8.81867 37.0052 9.8V13.048C37.0052 13.4533 37.1972 13.656 37.5812 13.656C37.7625 13.656 37.9332 13.6293 38.0932 13.576L37.9652 14.936C37.6879 15.0747 37.3412 15.144 36.9252 15.144C36.4665 15.144 36.0665 15.048 35.7252 14.856C35.3945 14.664 35.1705 14.376 35.0532 13.992C34.7972 14.376 34.4292 14.6693 33.9492 14.872C33.4799 15.064 32.9945 15.16 32.4932 15.16C31.6825 15.16 31.0372 14.9787 30.5572 14.616C30.0879 14.2427 29.8532 13.704 29.8532 13C29.8532 12.4027 30.0452 11.9173 30.4292 11.544C30.8132 11.16 31.3625 10.8987 32.0772 10.76L34.8292 10.2V9.896ZM32.0452 12.792C32.0452 13.0587 32.1412 13.2613 32.3332 13.4C32.5359 13.5387 32.7759 13.608 33.0532 13.608C33.3625 13.608 33.6505 13.56 33.9172 13.464C34.1839 13.368 34.4025 13.208 34.5732 12.984C34.7439 12.7493 34.8292 12.44 34.8292 12.056V11.56L33.1492 11.896C32.7865 11.9707 32.5092 12.072 32.3172 12.2C32.1359 12.3173 32.0452 12.5147 32.0452 12.792ZM39.4567 15V7H41.4247L41.5047 8.504C41.75 7.94933 42.1074 7.53333 42.5767 7.256C43.0567 6.97867 43.606 6.84 44.2247 6.84C45.0567 6.84 45.7447 7.08533 46.2887 7.576C46.8327 8.056 47.1047 8.78133 47.1047 9.752V15H44.9127V10.376C44.9127 9.69333 44.774 9.224 44.4967 8.968C44.23 8.70133 43.8887 8.568 43.4727 8.568C43.174 8.568 42.8807 8.64267 42.5927 8.792C42.3154 8.93067 42.086 9.16 41.9047 9.48C41.734 9.8 41.6487 10.2267 41.6487 10.76V15H39.4567ZM48.8989 15V13.592L52.4509 9.496L53.3629 8.584L52.0349 8.616H48.9309V7H55.7949V8.408L52.2589 12.488L51.3469 13.416L52.8029 13.384H55.9229V15H48.8989Z" fill="white"/>
</svg>
